<?xml version="1.0" encoding="UTF-8" standalone="no"?>
<svg xmlns="http://www.w3.org/2000/svg" viewBox="0 0 144 144" width="144" height="144">
  <path fill="#1ED6B5" d="M126,51.3c-12,0-21.7,9.7-21.7,21.7s9.7,21.7,21.7,21.7s21.7-9.7,21.7-21.7S138,51.3,126,51.3z M126,88c-8.3,0-15-6.7-15-15s6.7-15,15-15s15,6.7,15,15S134.3,88,126,88z"/>
  <path fill="#FE5F55" d="M61.5,49h-15v15h15V49z M43.8,49h-15v15h15V49z M26.1,49h-15v15h15V49z M79.2,49h-15v15h15V49z M61.5,30.9h-15v15h15V30.9z M43.8,30.9h-15v15h15V30.9z M26.1,30.9h-15v15h15V30.9z M79.2,30.9h-15v15h15V30.9z M96.9,49h-15v15h15V49z"/>
  <path fill="#1E2226" d="M125.5,88.1c-1-0.7-2.2-0.7-3.1,0.1c-0.7,0.6-1.1,1.5-1.1,2.4c0,0.9,0.4,1.8,1.1,2.4c0.5,0.4,1.1,0.6,1.8,0.6c0.5,0,0.9-0.1,1.4-0.3c0.8-0.4,1.3-1.1,1.4-2c0.1-0.8-0.1-1.5-0.6-2.1C126,88.8,125.8,88.4,125.5,88.1z M128.2,67c-3.2-6.3-12.4-7.1-12.7-7.1l-7.1-0.4l6.1-2.2c0.2-0.1,0.5-0.2,0.8-0.2c11.2-2.2,12.8-16,12.8-16.3c0-0.5-0.2-0.9-0.6-1.2c-0.4-0.3-0.9-0.4-1.3-0.2c-0.4,0.1-10.2,3.8-10.6,13.6c-0.1,3.6,0.9,6.9,3.1,9.6l-15.7,3.5l-2.1-4.9c-0.2-0.4-0.5-0.6-0.9-0.8c-0.4-0.1-0.8-0.1-1.2,0.1L98,61.3c-0.8,0.4-1.1,1.3-0.7,2.1l5.9,13.6c0.2,0.6,0.8,0.9,1.4,0.9c0.2,0,0.5-0.1,0.7-0.2l0.6-0.3c0.8-0.4,1.1-1.3,0.7-2.1l-2-4.6l5.3-2.3l-1.5,7.6c-0.1,0.4,0,0.9,0.3,1.2c0.3,0.3,0.7,0.5,1.1,0.5h11.1c0.5,0,1-0.2,1.3-0.7l5.3-7.8c0.3-0.4,0.3-0.9,0.2-1.4C128.5,67.6,128.4,67.3,128.2,67z"/>
  <path fill="#FFF" d="M113.8,97H4.8c-2.6,0-4.8-2.1-4.8-4.8V41.6c0-2.6,2.1-4.8,4.8-4.8h109c2.6,0,4.8,2.1,4.8,4.8v50.6C118.6,94.9,116.4,97,113.8,97z"/>
</svg>
